<svg width="872" height="181" viewBox="0 0 872 181" fill="none" xmlns="http://www.w3.org/2000/svg">
<path d="M665.501 0L615.062 78.888L564.438 0H524V181H564.438V74.833L593.639 120.667H636.176L665.501 74.7101V181H706V0H665.501Z" fill="#09202D"/>
<path d="M115.91 40.1813L141 0H0V40.0584V80.1782V120.237V181H40.5745V120.667H115.91L115.786 80.424H40.5745V40.1813H115.91Z" fill="#09202D"/>
<path d="M233.5 0C183.522 0 143 40.5224 143 90.5C143 140.478 183.522 181 233.5 181C283.478 181 324 140.478 324 90.5C324 40.5224 283.478 0 233.5 0ZM233.5 139.127C205.748 139.127 183.215 116.594 183.215 88.8423C183.215 61.0906 205.748 38.5577 233.5 38.5577C261.252 38.5577 283.785 61.0906 283.785 88.8423C283.785 116.594 261.252 139.127 233.5 139.127Z" fill="#09202D"/>
<path d="M489.571 97.3198C494.906 89.7013 497.945 80.4854 498.566 69.5492C498.938 65.4942 499.062 61.0706 498.69 56.4627C497.263 38.5838 494.223 27.7705 483.057 15.667C471.457 3.07196 458.367 0.430075 442.983 0H388.764H349V181H389.633V120.667H421.891L452.846 181H499L461.159 115.813C473.194 112.249 483.305 106.351 489.571 97.3198ZM437.586 82.1443C437.524 82.2057 389.633 82.1443 389.633 82.1443V38.3995H435.849C436.097 38.3995 439.012 38.5224 439.261 38.5838C450.055 39.8741 458.491 49.0285 458.491 60.2719C458.429 72.0682 449.186 81.5913 437.586 82.1443Z" fill="#09202D"/>
<path d="M770 110.887H731C731 149.609 762.564 181 801.5 181C840.436 181 872 149.609 872 110.887C872 85.9469 858.906 64.0481 839.182 51.6191L818.336 84.4058C827.149 89.9591 833 99.7437 833 110.887C833 128.189 818.897 142.214 801.5 142.214C784.103 142.214 770 128.189 770 110.887Z" fill="#00B4B4"/>
<path d="M846.5 40.1186H731V0H872L846.5 40.1186Z" fill="#00B4B4"/>
</svg>
